<svg id="visual" viewBox="0 0 900 600" width="900" height="600" xmlns="http://www.w3.org/2000/svg" xmlns:xlink="http://www.w3.org/1999/xlink" version="1.1"><rect x="0" y="0" width="900" height="600" fill="#fff"></rect><g transform="translate(445.618741324654 296.81061357333516)"><path d="M98.6 -136.6C131.1 -112.1 163 -87.7 181.1 -53.8C199.1 -19.8 203.2 23.8 190.3 61.3C177.4 98.8 147.5 130.3 112.9 153.4C78.4 176.5 39.2 191.3 -2.4 194.6C-44.1 198 -88.2 190 -118.3 165.5C-148.4 140.9 -164.6 99.8 -176.1 58.6C-187.7 17.3 -194.6 -24.1 -183.3 -59.8C-172 -95.5 -142.4 -125.4 -108.8 -149.5C-75.2 -173.6 -37.6 -191.8 -2.3 -188.6C33.1 -185.5 66.1 -161 98.6 -136.6" fill="#A1C870"></path></g></svg>